<svg xmlns="http://www.w3.org/2000/svg" width="64" height="64" viewBox="0 0 64 64">
  <defs>
    <radialGradient id="g" cx="50%" cy="60%" r="50%"><stop offset="0" stop-color="#e8ffb0"/><stop offset=".5" stop-color="#5cff5c"/><stop offset="1" stop-color="#0b8f2a" stop-opacity="0"/></radialGradient>
  </defs>
  <path d="M20 22 L10 60 L48 60 L42 22 Z" fill="#8a1a1a" stroke="#3a0606" stroke-width="1.5"/>
  <path d="M20 22 L14 60 H20 Z" fill="#6a1010"/>
  <path d="M29 28 L27 60 H33 L33 28 Z" fill="#d4af37"/>
  <path d="M18 40 H44" stroke="#d4af37" stroke-width="2"/>
  <path d="M20 22 C20 6 42 6 42 22 L38 28 H24 Z" fill="#7a1414" stroke="#3a0606" stroke-width="1.5"/>
  <ellipse cx="31" cy="20" rx="6" ry="6.5" fill="#c99a76"/>
  <circle cx="28.5" cy="19" r="1.3" fill="#ff4a2a"/>
  <circle cx="33.5" cy="19" r="1.3" fill="#ff4a2a"/>
  <circle cx="31" cy="11" r="2.5" fill="#ff3b1a" stroke="#d4af37"/>
  <rect x="48" y="18" width="3" height="42" rx="1" fill="#4a2e14" stroke="#1a0f06" stroke-width=".8"/>
  <path d="M44 20 Q49.5 12 55 20 Q49.5 24 44 20 Z" fill="#d4af37"/>
  <circle cx="49.5" cy="12" r="11" fill="url(#g)"/>
  <path d="M49.5 2 C54 8 56 12 52 18 C55 13 50 10 49.5 14 C48 10 44 13 47 18 C43 12 45 8 49.5 2 Z" fill="#7dff3a" stroke="#1d7a1d" stroke-width=".8"/>
  <path d="M49.5 9 C51 12 51 15 49.5 17 C48 15 48 12 49.5 9 Z" fill="#f0ffd0"/>
  <path d="M18 34 C14 38 12 42 14 46" stroke="#6a1010" stroke-width="5" stroke-linecap="round" fill="none"/>
  <path d="M42 32 C46 30 47 26 48 24" stroke="#7a1414" stroke-width="5" stroke-linecap="round" fill="none"/>
</svg>
